HIERARCHY
ROOT hip
{
	OFFSET 0.000000 0.000000 0.000000 
	CHANNELS 6 Xposition Yposition Zposition Zrotation Yrotation Xrotation
	JOINT abdomen
	{
		OFFSET 0.000000 20.688101 -0.731520 
		CHANNELS 3 Zrotation Xrotation Yrotation
		JOINT chest
		{
			OFFSET 0.000000 11.704300 -0.487680 
			CHANNELS 3 Zrotation Xrotation Yrotation
			JOINT neck
			{
				OFFSET 0.000000 22.189400 -2.194560 
				CHANNELS 3 Zrotation Xrotation Yrotation
				JOINT head
				{
					OFFSET -0.243840 7.071330 1.219200 
					CHANNELS 3 Zrotation Xrotation Yrotation
					End Site
					{
						OFFSET 1.000000 0.000000 0.000000 
					}
				}
			}
			JOINT rCollar
			{
				OFFSET -2.682240 19.263399 -4.876800 
				CHANNELS 3 Zrotation Xrotation Yrotation
				JOINT rShldr
				{
					OFFSET -8.778240 -1.950730 1.463040 
					CHANNELS 3 Zrotation Xrotation Yrotation
					JOINT rForeArm
					{
						OFFSET -28.174200 -1.711500 0.487680 
						CHANNELS 3 Zrotation Xrotation Yrotation
						JOINT rHand
						{
							OFFSET -22.587900 0.773209 7.071360 
							CHANNELS 3 Zrotation Xrotation Yrotation
							End Site
							{
								OFFSET -1.692250 -0.517670 -0.607171 
							}
						}
					}
				}
			}
			JOINT lCollar
			{
				OFFSET 2.682240 19.263399 -4.876800 
				CHANNELS 3 Zrotation Xrotation Yrotation
				JOINT lShldr
				{
					OFFSET 8.778240 -1.950730 1.463040 
					CHANNELS 3 Zrotation Xrotation Yrotation
					JOINT lForeArm
					{
						OFFSET 28.174200 -1.711500 0.487680 
						CHANNELS 3 Zrotation Xrotation Yrotation
						JOINT lHand
						{
							OFFSET 22.587900 0.773209 7.071360 
							CHANNELS 3 Zrotation Xrotation Yrotation
							End Site
							{
								OFFSET 1.692250 -0.517670 -0.607171 
							}
						}
					}
				}
			}
		}
	}
	JOINT rButtock
	{
		OFFSET -8.778240 4.350840 1.219200 
		CHANNELS 3 Zrotation Xrotation Yrotation
		JOINT rThigh
		{
			OFFSET 0.000000 -1.706870 -2.194560 
			CHANNELS 3 Zrotation Xrotation Yrotation
			JOINT rShin
			{
				OFFSET 0.000000 -36.819901 0.731520 
				CHANNELS 3 Zrotation Xrotation Yrotation
				JOINT rFoot
				{
					OFFSET 0.731520 -45.110401 -5.120640 
					CHANNELS 3 Zrotation Xrotation Yrotation
					End Site
					{
						OFFSET -1.122100 -3.699640 12.103000 
					}
				}
			}
		}
	}
	JOINT lButtock
	{
		OFFSET 8.778240 4.350840 1.219200 
		CHANNELS 3 Zrotation Xrotation Yrotation
		JOINT lThigh
		{
			OFFSET 0.000000 -1.706870 -2.194560 
			CHANNELS 3 Zrotation Xrotation Yrotation
			JOINT lShin
			{
				OFFSET 0.000000 -36.819901 0.731520 
				CHANNELS 3 Zrotation Xrotation Yrotation
				JOINT lFoot
				{
					OFFSET -0.731520 -45.110401 -5.120640 
					CHANNELS 3 Zrotation Xrotation Yrotation
					End Site
					{
						OFFSET 1.122100 -3.699640 12.103000 
					}
				}
			}
		}
	}
}
MOTION
Frames: 12
Frame Time: 0.008333
12.246600 72.256104 17.632200 -9.797100 -26.413200 -7.268100 10.209600 12.337200 0.034018 6.843100 -3.157760 0.285822 -13.185700 17.453300 -10.365400 25.322500 14.273200 -24.865200 0.000000 -0.000000 0.000000 60.460300 -5.892160 -3.481180 -24.780100 -20.632099 52.191898 -0.309745 -15.622900 -2.252500 0.000000 -0.000000 0.000000 -29.870199 -31.075899 12.905100 20.919399 -14.206700 -40.985500 0.036062 -5.683150 0.800830 -0.000000 0.000000 -0.000000 -25.886801 -12.943100 10.547500 -8.081530 83.022797 8.118460 5.634180 23.254999 -22.587400 0.000000 0.000000 0.000000 18.651899 -36.003899 29.289301 1.897820 69.006798 -2.377790 2.703400 -16.016899 7.541230 
12.317000 72.082001 18.727400 -8.976800 -26.506300 -8.126000 10.046100 12.909900 -0.567537 6.668120 -3.348260 0.164639 -13.285900 17.561100 -10.171000 24.747999 14.599500 -24.523800 0.000000 -0.000000 0.000000 61.608002 -6.141270 -4.786680 -24.514400 -20.091101 51.277302 -0.303698 -15.474000 -2.229940 0.000000 -0.000000 0.000000 -32.664200 -30.590200 12.121900 20.970900 -14.280700 -41.103401 0.056520 -6.942950 0.980231 -0.000000 0.000000 -0.000000 -26.596201 -16.359400 8.832440 -7.158280 82.233200 7.191790 4.860450 20.680500 -23.655701 0.000000 0.000000 0.000000 16.956200 -34.936001 28.568800 1.892050 69.205498 -2.469690 3.045370 -16.892000 8.103520 
12.484700 71.890404 19.887199 -7.619100 -26.396999 -9.314300 9.751270 13.541900 -1.201390 6.560580 -3.423710 0.024316 -13.375100 17.567600 -9.983130 24.213699 14.816800 -24.146799 -0.000000 -0.000000 0.000000 62.706100 -6.263710 -6.021460 -24.246500 -19.564800 50.398800 -0.290625 -15.164700 -2.182990 -0.000000 -0.000000 0.000000 -35.457699 -30.159000 11.182200 20.964500 -14.275200 -41.075901 0.074102 -7.743030 1.094950 -0.000000 0.000000 -0.000000 -27.206900 -19.448500 7.072260 -5.858710 80.756599 5.898900 4.130890 18.208300 -25.003401 0.000000 0.000000 0.000000 15.168100 -33.771301 27.840401 1.881570 69.303299 -2.536680 3.365690 -17.705601 8.587950 
12.753500 71.795303 21.169600 -5.802800 -25.981199 -10.863400 9.250510 14.294200 -1.903860 6.532590 -3.339170 -0.146404 -13.444700 17.431101 -9.810870 23.764500 14.871200 -23.731100 -0.000000 -0.000000 -0.000000 63.789501 -6.230300 -7.161520 -23.986799 -19.070400 49.585499 -0.270078 -14.649300 -2.105190 -0.000000 -0.000000 -0.000000 -38.224499 -29.909700 10.004800 20.867701 -14.145800 -40.822601 0.077580 -7.829680 1.107550 -0.000000 0.000000 -0.000000 -27.741600 -22.073200 5.157310 -4.541350 78.524002 4.608230 3.415490 15.756900 -26.839899 0.000000 0.000000 0.000000 13.171700 -32.456001 27.042999 1.868090 69.315399 -2.581490 3.657350 -18.471800 8.976430 
12.959600 71.734299 22.439400 -4.311100 -25.611401 -12.379500 8.650170 15.142700 -2.685890 6.564780 -3.162840 -0.344312 -13.509600 17.185900 -9.647520 23.373400 14.812000 -23.282400 -0.000000 -0.000000 -0.000000 64.856102 -6.081850 -8.237070 -23.741100 -18.617599 48.825001 -0.245853 -13.989700 -2.006420 -0.000000 -0.000000 -0.000000 -40.983700 -29.712700 8.642980 20.684900 -13.901800 -40.356602 0.069097 -7.409000 1.047300 -0.000000 0.000000 -0.000000 -28.235901 -24.345100 2.990050 -3.426870 75.599503 3.535890 2.602070 13.293800 -29.031300 0.000000 0.000000 0.000000 11.046100 -31.032000 26.180599 1.845930 69.233398 -2.601700 3.925430 -19.173000 9.299650 
13.022100 71.756401 23.457100 -3.821600 -25.389999 -13.075900 8.052710 15.965800 -3.462300 6.647780 -2.944700 -0.546302 -13.574200 16.899099 -9.479350 22.968201 14.719100 -22.803699 -0.000000 -0.000000 -0.000000 65.859398 -5.858120 -9.276170 -23.491301 -18.172899 48.054001 -0.220134 -13.242400 -1.895280 -0.000000 -0.000000 -0.000000 -43.772202 -29.363899 7.241030 20.480600 -13.630900 -39.851101 0.059214 -6.897590 0.974205 -0.000000 0.000000 -0.000000 -28.533400 -26.436501 0.838371 -2.546090 72.081001 2.689920 1.750330 11.063000 -31.189899 0.000000 0.000000 0.000000 9.012340 -29.583300 25.406099 1.812090 69.029297 -2.589750 4.163000 -19.794800 9.569020 
13.187100 71.821602 24.529100 -2.625300 -25.155399 -13.989100 7.548860 16.643499 -4.144490 6.771280 -2.734730 -0.729319 -13.643700 16.638000 -9.292270 22.474300 14.673800 -22.297300 0.000000 0.000000 -0.000000 66.749901 -5.598340 -10.307200 -23.214199 -17.696899 47.211899 -0.194389 -12.463400 -1.780070 0.000000 0.000000 -0.000000 -46.609001 -28.664000 5.952980 20.325899 -13.427100 -39.476898 0.055576 -6.712130 0.947710 -0.000000 0.000000 -0.000000 -28.460600 -28.536100 -1.017980 -1.871400 68.066803 2.018820 1.008340 9.275670 -32.927799 0.000000 0.000000 0.000000 7.268740 -28.203800 24.856300 1.764880 68.675301 -2.539370 4.363890 -20.322599 9.796050 
13.193200 71.864304 25.323700 -2.174800 -25.264601 -14.308900 7.138450 17.164700 -4.685620 6.972470 -2.556270 -0.881416 -13.731900 16.444201 -9.090270 21.848101 14.665300 -21.772301 0.000000 0.000000 -0.000000 67.479897 -5.262130 -11.333000 -22.890900 -17.160101 46.253700 -0.165647 -11.570100 -1.648520 0.000000 0.000000 -0.000000 -49.519901 -27.475300 4.865560 20.259399 -13.339900 -39.319000 0.060636 -7.054680 0.996453 -0.000000 0.000000 -0.000000 -27.862101 -30.684099 -2.267220 -1.331840 63.160301 1.429170 0.878922 8.497150 -34.006901 0.000000 0.000000 0.000000 5.844160 -26.921200 24.581400 1.710720 68.158501 -2.447730 4.525510 -20.751600 9.988550 
13.302300 71.892601 26.301500 -1.051100 -25.334801 -15.055500 6.770630 17.587999 -5.137750 7.243290 -2.379350 -1.016840 -13.832100 16.273800 -8.878180 21.137100 14.660900 -21.224600 0.000000 0.000000 -0.000000 68.093597 -4.847330 -12.339900 -22.531200 -16.581800 45.223598 -0.136493 -10.565000 -1.501620 0.000000 0.000000 -0.000000 -52.458500 -25.935699 3.897120 20.239401 -13.313500 -39.272099 0.071416 -7.672670 1.084690 -0.000000 0.000000 -0.000000 -26.781500 -32.797901 -3.108210 -0.942873 57.450001 0.945895 1.240020 8.394110 -34.666500 0.000000 0.000000 0.000000 4.613280 -25.695299 24.486500 1.654280 67.495300 -2.324420 4.647310 -21.090700 10.136800 
13.560100 72.244102 27.322201 0.404900 -25.345301 -15.973500 6.454020 17.898500 -5.558400 7.505220 -2.173960 -1.151860 -13.917900 16.065901 -8.643210 20.399300 14.709900 -20.635300 0.000000 0.000000 -0.000000 68.672997 -4.449130 -13.331900 -22.156300 -15.997600 44.194500 -0.113398 -9.632310 -1.366450 0.000000 0.000000 -0.000000 -55.334202 -24.261299 2.948850 20.219200 -13.288200 -39.220402 0.084421 -8.300860 1.174800 -0.000000 0.000000 -0.000000 -25.398001 -34.881500 -4.051510 -0.704134 51.762501 0.597023 1.283840 7.844050 -35.241600 0.000000 0.000000 0.000000 3.535710 -24.520599 24.485201 1.592220 66.702400 -2.182730 4.726750 -21.345900 10.226100 
13.665700 72.487701 28.185600 1.340400 -25.468800 -16.530500 6.198690 18.080700 -6.005440 7.680220 -1.910100 -1.302720 -13.961700 15.759500 -8.373070 19.690599 14.862300 -19.984900 0.000000 0.000000 -0.000000 69.293404 -4.161260 -14.313000 -21.794001 -15.450900 43.236198 -0.099409 -8.956540 -1.269220 0.000000 0.000000 -0.000000 -58.060501 -22.665501 1.917780 20.151400 -13.203400 -39.048698 0.093178 -8.674090 1.228560 -0.000000 0.000000 -0.000000 -23.983900 -36.917702 -5.658200 -0.564261 46.925201 0.368200 0.138894 5.767410 -36.098000 0.000000 0.000000 0.000000 2.579270 -23.388800 24.495199 1.519810 65.796402 -2.034620 4.761560 -21.522900 10.242000 
13.855000 73.117203 28.822599 1.910600 -25.738100 -16.758801 5.992660 18.099600 -6.462530 7.730640 -1.526990 -1.472470 -13.935900 15.312000 -8.067610 19.008900 15.160100 -19.271099 0.000000 0.000000 -0.000000 69.996002 -3.986080 -15.295600 -21.467400 -14.973700 42.390099 -0.093332 -8.627130 -1.222010 0.000000 0.000000 -0.000000 -60.584900 -21.153601 0.776320 20.016600 -13.034000 -38.715900 0.095346 -8.744040 1.238710 -0.000000 0.000000 -0.000000 -22.679399 -38.813202 -8.420380 -0.467021 43.154099 0.239043 -3.537220 0.731819 -38.152901 0.000000 0.000000 0.000000 1.757070 -22.222200 24.549101 1.428210 64.671402 -1.866530 4.727280 -21.616699 10.134200 
